<?xml version="1.0" standalone="no"?>
<!DOCTYPE svg PUBLIC "-//W3C//DTD SVG 20010904//EN"
 "http://www.w3.org/TR/2001/REC-SVG-20010904/DTD/svg10.dtd">
<svg version="1.0" xmlns="http://www.w3.org/2000/svg"
 width="512.000000pt" height="512.000000pt" viewBox="0 0 512.000000 512.000000"
 preserveAspectRatio="xMidYMid meet">
<metadata>
Created by potrace 1.16, written by Peter Selinger 2001-2019
</metadata>
<g transform="translate(0.000000,512.000000) scale(0.100000,-0.100000)"
fill="#000000" stroke="none">
<path d="M0 5075 c0 -45 10 -54 37 -37 10 6 10 16 1 45 -16 53 -38 48 -38 -8z"/>
<path d="M120 5115 c0 -11 93 -130 100 -128 8 2 169 111 185 125 5 4 -57 8
-138 8 -81 0 -147 -2 -147 -5z"/>
<path d="M560 5101 c-7 -14 -7 -22 1 -27 7 -4 9 -23 5 -52 -6 -41 -3 -50 25
-85 l31 -38 -93 -88 c-157 -147 -169 -156 -169 -134 0 20 -168 251 -209 287
-42 38 -20 -8 80 -163 56 -86 111 -171 122 -189 l20 -34 21 25 c12 14 70 84
130 156 60 72 109 131 110 131 5 0 304 -103 383 -132 52 -19 103 -45 118 -61
29 -28 55 -36 54 -14 -1 25 -67 271 -68 255 -2 -29 -41 -58 -70 -51 -14 3 -30
10 -35 14 -6 5 -14 9 -19 9 -5 0 13 -30 39 -67 47 -66 47 -67 13 -41 -19 15
-113 73 -210 130 -97 57 -186 110 -198 118 l-23 15 22 28 21 27 -45 0 c-35 0
-48 -5 -56 -19z"/>
<path d="M860 5114 c0 -9 70 -124 76 -124 2 0 4 29 4 65 l0 65 -40 0 c-22 0
-40 -3 -40 -6z"/>
<path d="M1320 4978 c101 -99 165 -154 209 -178 35 -19 66 -42 70 -51 10 -26
118 -112 181 -144 19 -10 36 -19 38 -20 2 -2 11 -43 22 -93 20 -99 44 -158 69
-172 13 -6 49 14 151 89 74 53 170 125 214 159 43 34 82 62 87 62 4 0 24 -9
43 -21 35 -20 36 -20 36 -2 0 25 -39 43 -89 43 -22 0 -128 -11 -237 -25 -110
-13 -218 -27 -241 -30 -47 -5 -42 -13 -62 90 -6 31 -6 51 0 53 5 2 9 11 9 20
0 13 -2 14 -9 4 -6 -10 -35 19 -103 100 -76 91 -133 164 -154 197 -6 8 -246
53 -309 58 l-70 5 145 -144z"/>
<path d="M1774 5104 c3 -9 6 -34 6 -56 0 -54 6 -46 13 20 5 43 3 52 -10 52
-10 0 -13 -6 -9 -16z"/>
<path d="M2078 5085 c-2 -19 -2 -32 0 -30 3 2 20 -2 40 -11 33 -14 37 -13 59
8 12 12 23 32 23 45 0 21 -4 23 -59 23 l-59 0 -4 -35z"/>
<path d="M2420 5115 c0 -3 18 -25 40 -49 l40 -44 -102 -93 c-57 -51 -105 -95
-108 -97 -8 -5 1 -157 10 -166 12 -12 66 67 145 215 l70 130 45 -51 45 -50 55
33 c30 18 86 53 123 77 38 24 72 39 76 34 4 -5 43 -57 85 -117 71 -98 113
-143 124 -133 4 4 -37 194 -59 279 l-10 37 -84 0 c-71 0 -83 -2 -79 -15 8 -19
-4 -19 -36 0 -19 11 -67 14 -202 15 -98 0 -178 -2 -178 -5z"/>
<path d="M3219 4963 c-42 -87 -76 -159 -75 -160 1 -2 345 26 363 30 8 1 -10
53 -50 142 l-63 140 -49 3 -50 2 -76 -157z"/>
<path d="M3736 5098 c-3 -13 -6 -48 -5 -78 0 -69 14 -41 21 43 5 57 -4 77 -16
35z"/>
<path d="M3770 5100 c0 -17 2 -19 14 -8 14 13 12 28 -5 28 -5 0 -9 -9 -9 -20z"/>
<path d="M3920 5116 c0 -2 8 -10 18 -17 15 -13 16 -12 3 4 -13 16 -21 21 -21
13z"/>
<path d="M4205 5084 c8 -20 15 -39 15 -42 0 -3 8 2 19 12 17 16 20 14 53 -26
19 -24 58 -77 87 -118 29 -41 57 -75 63 -75 9 0 146 189 178 245 7 12 10 12
26 0 10 -8 15 -10 11 -3 -4 6 -3 14 3 18 33 20 -9 25 -230 25 l-240 0 15 -36z"/>
<path d="M4945 5103 c4 -10 16 -41 27 -70 23 -58 18 -58 105 -4 36 22 43 31
43 59 l0 32 -91 0 c-83 0 -90 -2 -84 -17z"/>
<path d="M4133 4988 c-31 -57 -34 -59 -243 -132 l-95 -34 -1 34 c-1 43 -24
115 -35 108 -5 -3 -9 -26 -10 -52 0 -26 -4 -56 -8 -67 -7 -17 -11 -15 -39 24
-18 24 -32 47 -32 52 0 11 -120 69 -143 69 -17 0 -18 -5 -12 -37 3 -21 29
-105 56 -186 27 -82 49 -159 50 -170 1 -12 5 -4 11 18 5 22 19 68 30 103 11
34 18 69 15 76 -4 9 4 15 24 18 16 3 29 1 29 -4 0 -4 -9 -8 -21 -8 -11 0 -19
-4 -17 -9 7 -18 213 -311 220 -311 7 0 4 35 -18 189 -8 57 -13 105 -11 107 3
3 68 -20 227 -79 52 -19 163 -51 245 -71 83 -20 158 -39 168 -42 11 -4 -12 31
-54 80 l-73 86 -200 0 c-111 0 -196 4 -190 8 15 9 115 163 143 220 22 42 23
43 42 26 10 -9 22 -15 25 -11 7 6 -32 47 -45 47 -6 0 -22 -23 -38 -52z"/>
<path d="M4740 5020 c-8 -5 -10 -10 -5 -10 6 0 17 5 25 10 8 5 11 10 5 10 -5
0 -17 -5 -25 -10z"/>
<path d="M4640 4982 c-35 -15 -57 -28 -48 -30 9 -2 43 10 75 27 71 37 60 38
-27 3z"/>
<path d="M2059 4943 l-34 -38 38 34 c34 33 42 41 34 41 -2 0 -19 -17 -38 -37z"/>
<path d="M5007 4939 c3 -13 17 -62 30 -109 14 -46 22 -85 17 -87 -5 -2 -35
-21 -68 -42 l-59 -39 67 -49 c37 -27 80 -57 96 -67 l30 -17 0 158 0 159 -60
59 c-47 47 -58 54 -53 34z"/>
<path d="M1792 4920 c0 -14 2 -19 5 -12 2 6 2 18 0 25 -3 6 -5 1 -5 -13z"/>
<path d="M17 4886 c-15 -12 -17 -34 -17 -195 0 -207 -7 -188 93 -251 l47 -30
0 24 c0 23 -75 413 -86 449 -6 20 -13 21 -37 3z"/>
<path d="M4895 4824 c-44 -36 -123 -96 -176 -134 l-97 -69 103 -102 c57 -56
108 -98 113 -95 12 7 43 100 98 286 20 69 40 137 44 153 5 15 6 27 2 27 -4 -1
-43 -30 -87 -66z"/>
<path d="M1939 4833 l-34 -38 38 34 c34 33 42 41 34 41 -2 0 -19 -17 -38 -37z"/>
<path d="M1802 4830 c0 -14 2 -19 5 -12 2 6 2 18 0 25 -3 6 -5 1 -5 -13z"/>
<path d="M3021 4688 l37 -120 -26 7 c-15 3 -98 35 -184 70 l-158 63 -92 -88
c-51 -48 -91 -90 -88 -94 3 -3 116 4 250 14 135 11 259 20 275 20 28 0 35 -9
97 -113 37 -62 72 -125 79 -140 7 -15 15 -27 18 -27 6 0 122 348 121 362 0 3
-25 14 -56 24 -30 9 -113 45 -183 79 l-128 63 38 -120z"/>
<path d="M4565 4670 c21 -22 41 -40 44 -40 3 0 -13 18 -34 40 -21 22 -41 40
-44 40 -3 0 13 -18 34 -40z"/>
<path d="M1061 4661 c-24 -82 -6 -231 29 -231 5 0 10 51 12 114 2 63 0 112 -4
109 -5 -2 -8 5 -8 16 0 36 -17 31 -29 -8z"/>
<path d="M1470 4670 c0 -11 4 -20 9 -20 5 0 7 9 4 20 -3 11 -7 20 -9 20 -2 0
-4 -9 -4 -20z"/>
<path d="M1142 4568 c16 -40 52 -142 80 -226 43 -128 49 -155 37 -163 -10 -6
-7 -9 12 -9 14 0 42 11 61 24 30 20 38 22 59 11 13 -6 62 -20 109 -30 47 -9
98 -24 113 -32 l28 -14 -7 191 -7 191 54 49 c30 27 48 49 41 50 -13 0 -198
-41 -274 -61 -21 -5 -38 -15 -38 -22 0 -7 24 -27 53 -44 28 -18 58 -37 66 -42
11 -7 -5 -31 -74 -110 -49 -56 -89 -101 -90 -101 -2 0 -58 92 -125 205 -67
113 -123 205 -125 205 -1 0 10 -33 27 -72z"/>
<path d="M530 4623 c0 -13 105 -170 158 -235 29 -37 62 -70 73 -73 11 -4 42 4
72 18 68 31 178 103 170 111 -3 3 -12 1 -18 -4 -9 -7 -35 -2 -86 16 -74 26
-326 147 -343 165 -11 10 -26 12 -26 2z"/>
<path d="M4209 4613 c5 -10 45 -72 89 -138 80 -119 81 -120 61 -141 -19 -20
-19 -20 14 -51 17 -17 42 -36 55 -42 12 -7 22 -21 22 -32 0 -13 -4 -18 -12
-13 -8 5 -9 2 -4 -12 4 -10 19 -62 33 -114 14 -52 28 -103 31 -114 4 -16 11
-17 56 -11 82 10 216 44 265 66 40 17 44 22 30 32 -9 7 -102 40 -206 75 l-189
64 7 51 c4 29 8 76 8 106 1 52 0 53 -24 47 l-25 -6 0 86 0 87 -48 -7 c-46 -6
-51 -4 -106 39 -65 50 -71 53 -57 28z"/>
<path d="M1250 4615 c0 -2 24 -19 53 -38 78 -50 81 -51 74 -40 -7 11 -127 85
-127 78z"/>
<path d="M360 4553 c0 -5 36 -55 79 -113 71 -95 77 -107 69 -132 -6 -17 -15
-25 -21 -21 -24 13 1 -7 98 -81 106 -81 139 -97 88 -43 -17 17 -92 114 -167
215 -75 100 -139 182 -141 182 -3 0 -5 -3 -5 -7z"/>
<path d="M4560 4535 c0 -9 4 -14 9 -11 4 3 13 -6 19 -19 7 -14 17 -25 23 -25
14 0 -21 62 -39 68 -6 2 -12 -4 -12 -13z"/>
<path d="M830 4534 c8 -4 41 -20 73 -36 31 -15 57 -26 57 -24 0 10 -86 55
-115 60 -16 4 -23 3 -15 0z"/>
<path d="M2520 4484 c19 -21 93 -115 164 -209 71 -93 131 -172 132 -174 2 -2
16 12 31 30 15 19 56 64 92 101 l64 67 -78 36 c-43 19 -79 35 -81 35 -2 0 -72
31 -156 69 -84 38 -164 72 -178 76 -24 7 -23 6 10 -31z"/>
<path d="M4489 4453 l-34 -38 38 34 c20 19 37 36 37 38 0 8 -8 0 -41 -34z"/>
<path d="M334 4419 c-10 -12 -65 -60 -121 -106 l-102 -85 62 -75 c34 -42 72
-87 84 -102 26 -32 21 -45 65 179 19 96 38 183 42 193 11 24 -7 22 -30 -4z"/>
<path d="M3505 4367 c3 -34 8 -85 11 -114 l5 -51 33 13 c17 7 81 21 141 30 92
13 114 20 137 42 32 31 30 39 -16 47 -30 6 -53 -2 -155 -54 -67 -33 -124 -60
-127 -60 -4 0 -5 45 -2 99 4 91 3 100 -14 104 -17 5 -18 1 -13 -56z"/>
<path d="M3575 4393 c16 -9 35 -22 42 -29 8 -7 30 -16 51 -19 20 -3 46 -8 58
-10 12 -3 24 -2 28 2 5 6 -185 73 -204 72 -3 0 8 -7 25 -16z"/>
<path d="M3918 4403 c-5 -10 10 -435 16 -440 4 -4 279 -21 284 -18 1 1 -10 24
-27 51 -16 27 -64 108 -106 179 -129 217 -155 252 -167 228z"/>
<path d="M862 4160 c-111 -189 -122 -210 -110 -229 7 -12 18 -19 25 -17 40 16
383 260 383 273 0 7 -164 183 -170 182 -3 0 -60 -94 -128 -209z"/>
<path d="M5008 4317 l-77 -22 65 -72 c36 -40 69 -73 73 -73 12 0 51 122 51
158 0 39 -5 39 -112 9z"/>
<path d="M0 4243 c0 -47 2 -84 4 -82 2 2 22 41 43 87 l39 82 -43 0 -43 0 0
-87z"/>
<path d="M4270 4232 c0 -38 -3 -118 -6 -178 -4 -60 -4 -106 0 -103 16 15 32
349 17 349 -7 0 -11 -25 -11 -68z"/>
<path d="M2301 4228 c-85 -21 -155 -39 -157 -41 -1 -1 28 -34 66 -73 l68 -72
44 47 c77 80 149 169 141 174 -4 2 -77 -13 -162 -35z"/>
<path d="M3207 4190 c-23 -15 -80 -66 -126 -114 l-84 -87 28 -29 c16 -17 25
-30 21 -30 -4 0 6 -12 23 -26 17 -14 35 -23 40 -20 17 11 86 121 141 226 l55
105 -28 1 c-15 1 -47 -11 -70 -26z"/>
<path d="M3740 4119 c-155 -80 -162 -86 -137 -101 20 -11 122 -162 138 -205 8
-21 14 -24 42 -19 80 14 132 27 142 37 15 15 -31 49 -152 111 -97 51 -101 54
-85 72 21 22 81 52 102 50 8 -1 23 -2 32 -3 9 0 19 -9 22 -18 4 -15 5 -14 4 2
-1 11 2 27 5 35 8 19 27 104 24 107 -2 1 -63 -30 -137 -68z"/>
<path d="M1204 4159 c-5 -8 123 -234 141 -249 11 -9 16 -6 26 12 17 31 63 89
127 159 39 42 50 59 40 65 -16 10 -328 22 -334 13z"/>
<path d="M497 4130 c-17 -44 -78 -242 -75 -244 2 -1 36 -21 76 -45 39 -23 72
-43 72 -45 0 -8 -256 6 -285 15 -28 8 -29 8 -11 -6 11 -8 23 -15 27 -15 4 0
56 -73 115 -162 58 -90 108 -165 111 -168 3 -3 13 6 24 19 25 31 132 231 132
246 0 7 22 -1 51 -19 28 -18 69 -43 90 -56 l39 -24 -7 80 c-4 43 -13 82 -19
86 -7 4 -55 8 -107 8 l-95 0 -39 113 c-49 144 -92 237 -99 217z m158 -368 l20
-24 -28 13 c-15 7 -27 15 -27 19 0 7 13 22 14 18 1 -2 10 -14 21 -26z"/>
<path d="M1750 3960 c80 -77 148 -140 153 -140 4 0 8 35 8 78 1 42 3 70 6 61
4 -15 10 -15 66 -2 197 46 201 48 214 73 11 23 10 26 -14 32 -67 18 -293 38
-428 38 l-150 -1 145 -139z"/>
<path d="M2847 4083 c-10 -34 -17 -159 -8 -133 5 14 9 36 10 49 1 14 10 34 21
46 20 21 20 22 1 39 -18 17 -19 17 -24 -1z"/>
<path d="M3352 4088 c4 -8 20 -100 37 -204 17 -104 35 -207 40 -229 8 -36 9
-37 10 -10 1 32 -25 297 -36 355 l-6 35 71 -68 c40 -38 75 -66 80 -63 9 5 37
145 31 151 -2 1 -44 10 -94 19 -49 8 -101 19 -114 22 -19 6 -23 4 -19 -8z
m148 -123 c13 -14 21 -25 18 -25 -2 0 -15 11 -28 25 -13 14 -21 25 -18 25 2 0
15 -11 28 -25z"/>
<path d="M2487 4043 c-14 -39 -15 -49 -4 -60 14 -14 77 -8 77 7 0 5 9 6 20 3
12 -3 20 0 20 6 0 7 -5 9 -10 6 -15 -9 -40 14 -40 37 0 14 5 18 15 14 8 -3 15
-2 15 2 0 7 -57 32 -71 32 -3 0 -13 -21 -22 -47z"/>
<path d="M68 4048 l-68 -31 0 -60 0 -60 41 56 c22 32 43 57 47 57 4 0 18 -7
30 -16 21 -15 22 -14 22 20 0 19 3 41 6 50 8 22 0 20 -78 -16z"/>
<path d="M2603 4029 c9 -23 16 -29 32 -25 11 3 31 6 45 7 20 0 16 5 -25 24
-65 31 -65 31 -52 -6z"/>
<path d="M5080 4010 c-14 -4 -101 -29 -195 -55 -93 -26 -174 -50 -180 -53 -5
-3 40 -18 100 -33 61 -15 124 -31 142 -37 31 -10 33 -9 102 69 39 44 71 89 71
99 0 22 -3 22 -40 10z"/>
<path d="M2578 3963 l-117 -26 17 -21 c86 -109 278 -326 288 -326 7 0 15 4 18
8 2 4 -6 89 -19 187 -14 99 -25 186 -25 193 0 17 -26 14 -162 -15z"/>
<path d="M1681 3944 c2 -5 41 -85 87 -176 76 -152 122 -223 122 -188 0 16 77
120 89 120 4 0 16 -18 26 -40 10 -22 22 -40 27 -40 4 0 -1 19 -13 41 l-21 42
27 51 c15 28 42 67 59 86 17 20 3 8 -31 -26 -34 -34 -66 -58 -69 -55 -4 3 -5
2 -2 -4 3 -5 -11 -33 -31 -61 l-37 -52 -24 37 c-89 135 -225 308 -209 265z"/>
<path d="M4700 3929 c0 -5 5 -7 10 -4 6 3 10 8 10 11 0 2 -4 4 -10 4 -5 0 -10
-5 -10 -11z"/>
<path d="M2203 3899 c-27 -43 -116 -277 -109 -287 2 -4 -29 -25 -69 -47 l-74
-39 6 -81 c3 -44 9 -84 13 -88 4 -5 41 50 82 122 l74 130 50 -35 c62 -45 162
-104 175 -104 9 0 3 258 -7 269 -1 1 -49 -23 -106 -54 -57 -31 -111 -58 -122
-61 -17 -3 -17 -2 -2 15 9 10 27 49 40 87 13 38 35 96 50 128 30 69 30 96 -1
45z"/>
<path d="M2822 3870 c0 -14 2 -19 5 -12 2 6 2 18 0 25 -3 6 -5 1 -5 -13z"/>
<path d="M1295 3799 c-236 -165 -275 -193 -272 -195 1 -1 90 18 197 42 107 24
203 44 213 44 9 0 17 3 17 8 0 18 -66 152 -75 151 -5 0 -41 -23 -80 -50z"/>
<path d="M1930 3796 c0 -2 8 -10 18 -17 15 -13 16 -12 3 4 -13 16 -21 21 -21
13z"/>
<path d="M3681 3727 l-114 -59 59 -25 c33 -13 66 -27 74 -29 12 -4 27 18 57
83 23 48 41 88 40 88 -1 0 -53 -26 -116 -58z"/>
<path d="M3856 3752 c15 -20 62 -80 104 -132 41 -52 88 -112 104 -133 15 -21
33 -36 39 -34 14 4 28 187 15 201 -4 6 -9 26 -9 45 -2 33 -2 33 -6 7 -5 -33
-50 -79 -71 -71 -7 3 -18 5 -23 5 -17 0 -99 82 -99 99 0 9 6 23 13 30 10 10 9
11 -5 6 -9 -4 -33 -2 -53 4 l-36 10 27 -37z"/>
<path d="M50 3759 c-22 -18 -22 -19 -3 -10 12 6 25 16 28 21 9 15 3 12 -25
-11z"/>
<path d="M2563 3676 l-32 -64 33 -69 c18 -37 39 -84 48 -103 l17 -35 0 60 c0
88 -16 256 -26 266 -5 5 -22 -19 -40 -55z"/>
<path d="M3115 3654 c-159 -40 -292 -73 -295 -73 -3 -1 31 -14 75 -30 44 -15
113 -45 153 -65 l72 -36 53 26 c28 14 61 37 72 50 11 12 53 61 94 109 40 47
72 87 70 89 -2 1 -134 -30 -294 -70z"/>
<path d="M4322 3713 c5 -7 35 -19 66 -28 32 -9 111 -35 178 -58 l121 -41 52
43 c64 54 60 57 -75 71 -196 20 -353 26 -342 13z"/>
<path d="M2686 3488 c2 -51 7 -160 10 -241 l6 -148 27 34 c14 19 59 72 99 117
64 71 72 84 60 98 -38 50 -159 190 -180 210 l-25 23 3 -93z"/>
<path d="M1715 3544 c-55 -7 -143 -19 -195 -26 -52 -7 -95 -17 -95 -23 0 -5
57 -24 125 -41 202 -51 177 -54 249 32 71 85 77 80 -84 58z"/>
<path d="M784 3520 c-34 -15 -100 -40 -146 -56 l-85 -27 101 -86 c56 -47 137
-117 180 -155 l79 -71 -6 65 c-3 36 -12 131 -19 213 -13 168 -8 162 -104 117z"/>
<path d="M3395 3443 c-150 -121 -259 -218 -230 -205 40 19 171 50 236 57 l66
6 32 121 c17 67 30 122 28 124 -1 1 -60 -45 -132 -103z"/>
<path d="M4230 3540 c0 -11 89 -371 101 -408 l11 -34 90 177 c49 97 87 179 84
182 -10 10 -286 90 -286 83z"/>
<path d="M3840 3526 c-6 -8 -28 -23 -48 -33 -38 -18 -245 -173 -240 -179 2 -1
103 0 225 4 213 7 223 8 243 30 21 23 50 30 50 12 0 -6 -14 -49 -30 -97 -17
-47 -28 -88 -25 -91 2 -3 9 6 14 19 5 13 25 66 46 117 20 52 33 97 30 100 -4
4 -10 1 -12 -5 -7 -19 -26 -16 -69 12 l-39 26 27 -25 27 -24 -62 -11 c-120
-20 -299 -42 -304 -38 -11 11 20 48 79 95 35 27 72 59 82 71 18 20 21 20 44 5
13 -9 21 -11 18 -5 -14 22 -43 31 -56 17z m-207 -193 c-7 -2 -19 -2 -25 0 -7
3 -2 5 12 5 14 0 19 -2 13 -5z"/>
<path d="M1112 3428 c-29 -35 -52 -66 -52 -69 0 -4 48 -37 107 -75 59 -38 157
-102 218 -142 101 -66 224 -132 248 -132 19 0 -19 39 -114 118 -53 44 -147
136 -209 204 -62 67 -120 131 -129 141 -16 16 -20 14 -69 -45z"/>
<path d="M4520 3437 c0 -2 22 -60 49 -128 91 -232 96 -249 81 -273 -13 -21
-13 -21 8 -2 11 10 25 16 30 15 5 -2 -21 -31 -57 -64 l-67 -60 51 -58 c40 -47
358 -309 413 -341 31 -18 -10 33 -123 154 -123 131 -138 153 -149 210 -12 67
-39 145 -57 165 -18 20 -17 26 30 192 l48 171 -46 5 c-90 12 -211 19 -211 14z"/>
<path d="M95 3346 l-90 -33 -3 -100 -3 -101 34 -36 c19 -20 38 -36 43 -36 8 0
112 227 143 313 10 24 8 27 -12 26 -12 0 -62 -15 -112 -33z"/>
<path d="M1860 3366 c0 -2 9 -6 20 -9 11 -3 18 -1 14 4 -5 9 -34 13 -34 5z"/>
<path d="M4114 3344 c-4 -10 -22 -55 -40 -98 -19 -44 -34 -86 -34 -95 0 -11
-3 -12 -12 -3 -8 8 -20 4 -48 -18 l-37 -29 -139 59 c-76 32 -148 60 -159 62
-11 1 -24 8 -28 13 -5 6 -6 1 -2 -10 4 -11 9 -34 12 -51 4 -26 20 -40 103 -93
55 -35 107 -72 116 -82 16 -18 16 -20 -6 -44 -13 -14 -22 -27 -19 -29 17 -15
296 -92 305 -84 1 2 -34 43 -78 92 -78 84 -81 89 -62 103 75 56 183 132 203
143 23 12 27 10 40 -11 28 -42 69 -84 76 -77 10 9 -9 40 -93 152 -95 128 -90
123 -98 100z"/>
<path d="M4850 3342 c0 -4 61 -71 134 -147 l135 -140 0 111 1 111 -130 37
c-143 40 -140 39 -140 28z"/>
<path d="M1741 3299 c-68 -10 -125 -20 -126 -21 -6 -8 29 -248 36 -248 8 0 82
83 187 213 46 56 58 77 45 76 -10 0 -74 -9 -142 -20z"/>
<path d="M3340 3254 c8 -10 18 -21 21 -24 3 -3 36 -95 73 -205 78 -231 78
-231 93 -213 29 36 132 232 126 238 -21 18 -281 198 -303 210 -24 13 -24 12
-10 -6z"/>
<path d="M2240 3240 c-89 -3 -116 -7 -95 -13 17 -4 88 -41 159 -82 l130 -74
85 82 c82 78 85 82 61 88 -29 8 -161 7 -340 -1z"/>
<path d="M2850 3105 c-118 -40 -246 -84 -284 -97 l-68 -24 53 -28 c87 -45 269
-117 279 -111 6 4 10 33 10 66 l0 59 60 0 c51 0 61 3 73 23 7 12 37 59 65 105
28 45 46 82 39 81 -7 0 -109 -33 -227 -74z"/>
<path d="M490 3091 c-58 -31 -94 -45 -114 -43 -16 2 -33 -1 -39 -7 -8 -8 -5
-11 11 -11 12 0 22 -5 22 -12 0 -6 3 -8 7 -5 3 4 11 1 17 -6 12 -14 170 -128
196 -141 8 -5 0 4 -18 19 -22 18 -30 31 -24 39 9 10 52 181 52 205 0 18 -21
11 -110 -38z"/>
<path d="M3264 3096 c-17 -17 -296 -324 -366 -402 -17 -19 -18 -25 -6 -43 11
-19 22 -21 98 -21 97 0 130 7 130 25 0 7 38 105 84 216 92 223 101 250 89 248
-4 -1 -17 -11 -29 -23z"/>
<path d="M1760 3097 c0 -2 20 -46 44 -98 36 -77 53 -101 93 -131 55 -42 53
-43 67 58 l6 51 -97 58 c-120 71 -113 67 -113 62z"/>
<path d="M835 3074 c-27 -7 -61 -14 -75 -14 -19 -1 -6 -11 50 -40 41 -21 78
-35 81 -32 4 4 10 28 13 55 8 53 9 53 -69 31z"/>
<path d="M1108 3056 c-61 -17 -108 -36 -108 -43 0 -16 42 -103 50 -103 3 0 43
41 88 90 46 50 82 89 80 89 -2 -1 -51 -15 -110 -33z"/>
<path d="M4880 3019 c-47 -10 -98 -18 -115 -19 -22 0 -26 -3 -15 -9 8 -6 17
-8 21 -6 4 3 42 7 85 11 58 4 84 11 99 25 11 10 17 18 15 18 -3 -1 -43 -10
-90 -20z"/>
<path d="M82 2996 c6 -12 48 -84 93 -161 45 -77 101 -175 125 -218 23 -43 47
-76 53 -74 12 4 231 287 225 291 -1 2 -46 17 -98 35 -52 17 -166 57 -252 90
-138 51 -156 56 -146 37z"/>
<path d="M1550 2986 c0 -3 23 -51 50 -107 28 -56 50 -108 50 -116 0 -7 5 -13
12 -13 7 0 23 -11 37 -24 l26 -24 114 41 114 41 -101 47 c-55 26 -143 72 -196
103 -92 54 -106 61 -106 52z"/>
<path d="M4909 2973 c-13 -16 -12 -17 4 -4 9 7 17 15 17 17 0 8 -8 3 -21 -13z"/>
<path d="M4976 2851 c13 -56 39 -157 59 -226 19 -69 35 -127 35 -130 0 -3 -7
-5 -15 -5 -8 0 -15 -4 -15 -10 0 -5 7 -10 15 -10 8 0 15 4 15 10 0 5 11 12 25
16 l25 6 0 192 0 192 -67 27 c-38 14 -75 29 -85 32 -14 6 -13 -5 8 -94z"/>
<path d="M4844 2898 l-29 -33 33 29 c17 17 32 31 32 33 0 8 -8 1 -36 -29z"/>
<path d="M17 2909 c-15 -9 -17 -27 -17 -145 0 -132 0 -134 20 -124 25 13 25
10 0 -104 -11 -50 -20 -126 -20 -171 l0 -81 66 -64 66 -65 -6 73 c-16 192 -20
217 -26 192 -8 -28 -11 -8 -28 159 -5 51 -14 96 -20 100 -7 4 -12 53 -14 123
-3 108 -4 116 -21 107z"/>
<path d="M3700 2752 c-47 -69 -86 -131 -88 -138 -2 -6 42 -32 98 -57 100 -47
120 -54 120 -39 -2 37 -39 354 -42 357 -2 2 -42 -53 -88 -123z"/>
<path d="M822 2803 c-17 -32 -56 -96 -88 -143 -31 -47 -57 -91 -57 -97 -1 -17
-4 -16 -38 8 -37 26 -37 9 -1 -33 16 -18 46 -60 67 -93 49 -77 106 -147 114
-139 5 5 41 545 36 552 -1 1 -16 -24 -33 -55z"/>
<path d="M4280 2730 c-80 -49 -150 -93 -156 -97 -8 -6 -7 -38 3 -118 9 -60 18
-113 22 -117 8 -10 102 115 205 275 80 123 94 147 80 147 -5 -1 -74 -41 -154
-90z"/>
<path d="M4646 2772 c-8 -14 -26 -134 -26 -181 0 -25 5 -71 12 -103 7 -31 9
-60 5 -64 -3 -3 -26 -9 -51 -11 -25 -3 -51 -12 -57 -19 -13 -15 -2 -144 12
-144 5 0 30 27 56 60 49 63 62 64 63 5 1 -62 11 -62 106 3 81 55 119 76 179
98 15 6 6 10 -38 18 l-57 11 -59 100 c-124 213 -139 236 -145 227z"/>
<path d="M2670 2755 c0 -8 9 -39 21 -69 l20 -55 47 6 c75 9 78 15 30 54 -53
43 -104 79 -112 79 -3 0 -6 -7 -6 -15z"/>
<path d="M2399 2687 c-6 -23 -22 -82 -35 -131 -14 -48 -22 -91 -19 -94 7 -7
237 149 242 164 2 7 -9 15 -24 18 -15 4 -56 25 -90 46 l-63 39 -11 -42z"/>
<path d="M1664 2707 c3 -10 6 -23 6 -28 0 -5 9 -4 20 3 23 14 27 33 6 25 -7
-3 -19 0 -26 6 -10 10 -12 8 -6 -6z"/>
<path d="M3266 2551 c-141 -141 -148 -149 -127 -161 31 -16 209 -80 225 -80 8
0 17 41 29 133 23 183 30 257 26 257 -2 0 -71 -67 -153 -149z"/>
<path d="M985 2545 c-38 -77 -71 -142 -73 -145 -1 -3 35 -24 80 -47 l83 -42 3
62 c1 34 -3 118 -10 187 l-13 125 -70 -140z"/>
<path d="M2069 2594 c-141 -102 -138 -99 -101 -118 93 -48 327 -146 339 -142
10 4 8 20 -12 73 -36 95 -106 252 -115 258 -4 2 -54 -30 -111 -71z"/>
<path d="M1650 2589 c-58 -26 -109 -50 -114 -52 -5 -2 -7 -11 -3 -20 5 -14 17
-9 82 30 41 25 78 43 81 40 5 -4 31 -171 34 -215 0 -5 69 -32 81 -32 11 0 9
36 -5 75 -11 29 32 -22 221 -264 93 -118 185 -233 205 -255 l37 -41 1 151 c0
211 3 203 -88 257 -102 59 -358 187 -377 187 -17 0 -22 19 -29 109 -2 35 -8
67 -13 71 -4 4 -55 -15 -113 -41z"/>
<path d="M2690 2580 c0 -38 205 -500 228 -514 9 -5 15 62 28 300 l7 120 -44
13 c-24 7 -79 31 -121 52 -81 40 -98 46 -98 29z"/>
<path d="M621 2358 c70 -260 68 -258 68 -67 l1 166 -47 19 c-27 11 -51 20 -54
22 -3 1 11 -62 32 -140z"/>
<path d="M3875 2466 c-111 -36 -423 -172 -414 -180 2 -2 42 -20 88 -40 46 -20
93 -44 103 -53 18 -16 25 -11 168 132 130 130 160 168 132 164 -4 0 -38 -11
-77 -23z"/>
<path d="M5101 2283 c1 -82 5 -159 9 -173 5 -15 8 46 9 148 1 108 -3 172 -9
172 -6 0 -10 -55 -9 -147z"/>
<path d="M140 2400 c4 -8 31 -34 58 -58 28 -23 58 -60 69 -82 13 -29 24 -40
41 -40 12 0 25 -1 29 -2 14 -6 22 56 10 71 -7 8 4 3 25 -12 20 -16 53 -52 73
-81 28 -42 41 -53 57 -48 11 2 31 -4 46 -15 23 -17 132 -40 132 -28 0 3 -87
63 -193 134 -105 71 -201 138 -213 149 -27 26 -148 37 -134 12z"/>
<path d="M4328 2338 c-35 -72 -133 -378 -121 -378 10 0 124 98 205 177 70 68
86 89 78 102 -17 29 -115 144 -126 148 -6 2 -22 -20 -36 -49z"/>
<path d="M1170 2356 l-55 -11 -3 -98 c-1 -53 1 -97 5 -97 8 0 77 103 123 183
25 43 25 43 -70 23z"/>
<path d="M2528 2237 c-65 -34 -117 -64 -117 -67 0 -3 26 -26 57 -52 31 -26
118 -104 192 -173 74 -69 136 -121 138 -115 11 33 -120 461 -143 466 -5 2 -63
-25 -127 -59z"/>
<path d="M857 2254 c-3 -10 -13 -54 -22 -97 -9 -43 -27 -108 -40 -145 -24 -70
-41 -184 -30 -201 6 -11 185 134 185 151 0 5 -14 36 -31 70 -26 52 -29 65 -19
81 6 11 7 16 2 13 -6 -4 -10 14 -10 44 -1 57 -26 118 -35 84z m79 -276 c4 -13
-1 -27 -15 -39 -12 -11 -21 -17 -21 -13 0 4 -9 -1 -20 -11 -13 -12 -20 -14
-20 -5 0 10 -3 10 -15 0 -8 -6 -18 -9 -23 -6 -13 8 -21 56 -10 56 5 0 6 5 3
10 -3 6 1 10 9 10 9 0 16 4 16 10 0 5 10 18 22 30 l22 20 23 -22 c12 -11 25
-30 29 -40z"/>
<path d="M4877 2218 c-11 -67 -30 -318 -24 -324 3 -3 37 19 76 50 38 31 74 56
80 56 6 0 15 -19 21 -42 18 -70 21 -78 28 -78 4 0 7 18 7 40 0 22 -3 40 -7 40
-5 0 -8 13 -8 28 0 16 -12 47 -27 69 -16 21 -52 74 -81 116 -29 42 -54 77 -56
77 -2 0 -6 -15 -9 -32z"/>
<path d="M3890 2185 c0 -6 6 -19 14 -30 7 -11 41 -81 76 -155 34 -74 66 -139
70 -143 6 -7 108 51 109 63 1 3 -60 66 -134 140 -74 74 -135 130 -135 125z"/>
<path d="M335 2132 c21 -29 36 -54 34 -55 -2 -2 -43 -16 -92 -32 l-87 -30 27
-20 c15 -11 102 -78 193 -149 223 -174 244 -182 191 -77 -43 83 -72 161 -62
161 4 0 16 -9 25 -19 10 -11 35 -22 56 -26 21 -3 47 -15 58 -26 31 -28 46 -24
37 8 -4 16 -7 29 -8 29 -1 1 -50 31 -110 67 -90 55 -185 125 -281 206 -10 9
-2 -8 19 -37z"/>
<path d="M3163 2112 c-46 -56 -113 -148 -113 -155 0 -2 25 -8 55 -12 30 -3 55
-9 55 -13 -1 -4 -25 -27 -55 -51 -91 -75 -145 -134 -136 -150 6 -10 57 -18
182 -27 95 -8 177 -13 182 -11 4 1 -31 54 -78 116 -47 63 -85 116 -85 119 0 2
53 1 117 -3 l118 -8 -46 54 c-24 30 -70 84 -101 121 l-57 67 -38 -47z"/>
<path d="M4521 2075 c-6 -42 -11 -91 -11 -109 l0 -33 -146 -7 c-89 -4 -155
-11 -171 -19 l-25 -14 48 -21 c27 -11 120 -41 207 -66 86 -26 168 -52 182 -58
14 -6 28 -9 31 -6 12 13 -81 408 -96 408 -4 0 -13 -34 -19 -75z"/>
<path d="M1796 2078 c-4 -29 -23 -124 -42 -211 -18 -87 -34 -161 -34 -164 0
-2 17 17 39 44 21 26 82 98 135 158 52 61 96 112 96 115 0 6 -174 110 -183
110 -2 0 -7 -24 -11 -52z"/>
<path d="M1731 2054 c0 -11 3 -14 6 -6 3 7 2 16 -1 19 -3 4 -6 -2 -5 -13z"/>
<path d="M1688 2053 c7 -3 16 -2 19 1 4 3 -2 6 -13 5 -11 0 -14 -3 -6 -6z"/>
<path d="M1 1871 l0 -176 46 95 c25 52 58 122 73 155 l27 61 -73 21 -74 20 1
-176z"/>
<path d="M1567 2027 c-22 -7 -36 -15 -32 -19 8 -8 65 8 79 22 13 13 2 12 -47
-3z"/>
<path d="M1174 1955 c136 -81 298 -171 305 -168 6 3 34 213 29 218 -2 2 -100
5 -219 7 l-215 3 100 -60z"/>
<path d="M3708 1861 c-98 -82 -188 -157 -201 -167 -23 -19 -24 -21 -18 -147
l6 -129 34 49 c207 292 366 531 359 539 -2 1 -83 -64 -180 -145z"/>
<path d="M3620 1960 c0 -28 2 -29 33 -23 42 8 42 8 18 32 -31 31 -51 27 -51
-9z"/>
<path d="M1070 1883 c-52 -8 -97 -16 -99 -19 -7 -6 120 -263 137 -276 6 -6 12
-8 12 -6 0 3 11 71 25 153 14 81 25 151 23 154 -2 4 -46 1 -98 -6z"/>
<path d="M4230 1845 c-1 -22 188 -335 202 -335 17 0 5 21 -74 143 -46 69 -93
142 -105 164 -12 21 -22 33 -23 28z"/>
<path d="M4780 1836 c0 -14 302 -146 335 -146 3 0 5 32 5 70 l0 70 -42 0 c-43
0 -48 -7 -9 -13 26 -4 41 -23 41 -54 0 -17 -7 -23 -33 -28 -45 -9 -204 65
-178 83 13 9 5 11 -36 11 -28 1 -58 4 -67 7 -9 3 -16 3 -16 0z"/>
<path d="M2500 1825 c0 -3 -7 -49 -16 -103 -21 -131 -20 -151 16 -299 31 -124
49 -176 35 -101 -7 37 9 102 32 125 15 17 30 -2 36 -47 l4 -35 1 36 c2 28 -5
42 -29 65 -17 16 -42 51 -55 77 -14 26 -29 45 -34 42 -5 -3 -11 -1 -14 4 -8
12 -10 11 209 61 99 22 191 43 205 46 24 6 24 6 -14 26 -33 17 -342 108 -367
108 -5 0 -9 -2 -9 -5z"/>
<path d="M4085 1819 c-114 -10 -315 -41 -315 -49 0 -3 24 -21 53 -39 114 -74
323 -227 348 -254 l26 -28 7 32 c14 73 0 350 -18 348 -6 -1 -51 -5 -101 -10z"/>
<path d="M1951 1745 c-24 -8 -46 -17 -49 -19 -13 -14 108 -167 222 -281 118
-117 325 -300 332 -292 8 7 -63 137 -70 130 -5 -4 -6 1 -3 12 3 11 -2 36 -13
55 l-18 35 0 -43 c1 -69 -8 -58 -21 25 -7 43 -16 92 -21 108 -11 38 -22 125
-13 105 3 -8 17 -32 30 -54 l25 -38 20 41 c13 27 29 43 46 48 23 5 19 9 -39
36 -142 65 -326 139 -354 143 -16 1 -50 -4 -74 -11z"/>
<path d="M2905 1630 c-48 -96 -60 -98 -16 -3 44 96 9 47 -85 -117 -42 -74
-102 -179 -132 -232 -30 -53 -60 -94 -65 -91 -5 3 -7 0 -5 -8 3 -8 -2 -30 -10
-49 l-14 -35 34 32 c36 35 41 38 338 191 113 58 207 107 209 108 2 2 -7 18
-20 36 -28 39 -190 248 -192 248 -1 -1 -20 -36 -42 -80z"/>
<path d="M1320 1690 c0 -14 165 -204 289 -332 l104 -108 93 97 c51 54 93 103
94 108 0 6 -36 22 -79 37 -64 22 -250 99 -468 194 -19 8 -33 10 -33 4z m407
-352 c-3 -8 -6 -5 -6 6 -1 11 2 17 5 13 3 -3 4 -12 1 -19z"/>
<path d="M4460 1624 c0 -40 -2 -79 -5 -87 -3 -8 56 18 132 57 l138 71 -85 8
c-47 4 -106 11 -132 16 l-48 8 0 -73z"/>
<path d="M586 1605 c-4 -50 -9 -102 -11 -117 -4 -26 -3 -27 60 -33 83 -9 98
-4 85 30 -5 14 -18 38 -29 53 -10 15 -30 47 -44 72 -54 94 -54 94 -61 -5z"/>
<path d="M3683 1492 c-127 -86 -246 -169 -264 -183 l-32 -25 78 -43 c64 -35
80 -41 90 -29 6 7 40 48 75 91 34 44 116 136 181 207 114 122 128 141 112 139
-5 0 -112 -71 -240 -157z"/>
<path d="M4707 1608 c-77 -97 -135 -200 -191 -343 -16 -38 -32 -78 -38 -88 -5
-11 -8 -20 -6 -22 2 -2 54 29 115 68 95 61 112 76 113 98 0 14 9 75 19 135 21
122 31 194 26 194 -2 0 -19 -19 -38 -42z"/>
<path d="M27 1603 l-27 -4 1 -117 0 -117 55 114 c30 63 54 118 54 122 0 9 -31
10 -83 2z"/>
<path d="M4820 1483 l-45 -118 -8 54 c-4 30 -10 57 -13 60 -6 6 1 -65 12 -122
l6 -28 66 37 c37 20 115 66 175 102 101 63 107 69 107 99 l0 33 -128 0 -128 0
-44 -117z"/>
<path d="M295 1470 c46 -49 170 -151 203 -169 32 -17 42 -6 42 47 0 26 4 61 9
78 l9 32 -107 20 c-58 11 -126 24 -151 27 l-45 7 40 -42z"/>
<path d="M3271 1268 l-1 -137 31 -21 c16 -12 33 -19 36 -16 7 7 -29 199 -51
266 -14 44 -14 42 -15 -92z"/>
<path d="M259 1341 c-13 -30 -35 -79 -49 -109 l-25 -54 78 -77 c61 -60 88 -97
130 -176 l52 -100 85 -10 c47 -6 86 -7 88 -4 4 8 -96 197 -116 222 -9 10 -29
17 -51 17 -20 0 -53 5 -73 11 -43 11 -39 1 -62 172 -9 64 -21 127 -25 140 -8
20 -11 17 -32 -32z"/>
<path d="M4910 1325 c-25 -25 -62 -57 -83 -72 -26 -18 -52 -53 -85 -113 -41
-76 -50 -86 -67 -79 -11 4 -60 23 -108 43 -103 40 -103 40 -20 -76 l58 -80 62
7 c59 6 62 5 75 -19 20 -39 38 -18 86 99 23 55 62 149 87 209 25 60 44 113 43
118 -2 5 -23 -12 -48 -37z"/>
<path d="M1066 1281 c-7 -10 180 -175 203 -179 15 -3 123 26 396 104 20 6 -53
11 -215 14 l-245 5 -67 32 c-37 17 -70 28 -72 24z"/>
<path d="M2541 1264 c0 -11 3 -14 6 -6 3 7 2 16 -1 19 -3 4 -6 -2 -5 -13z"/>
<path d="M1800 1255 c0 -4 86 -282 116 -377 9 -27 19 -48 24 -48 16 0 321 360
308 364 -7 2 -72 12 -143 21 -72 9 -162 22 -200 30 -72 15 -105 19 -105 10z"/>
<path d="M3937 1169 c-31 -51 -55 -94 -54 -95 9 -9 88 -20 92 -14 3 5 23 23
45 40 l40 32 9 -24 c10 -23 10 -23 10 -1 1 12 -3 24 -9 28 -5 3 -25 33 -43 66
l-35 61 -55 -93z"/>
<path d="M826 1201 l-170 -37 64 -53 c71 -59 198 -146 204 -140 3 3 28 79 82
252 3 9 2 17 -3 16 -4 -1 -84 -18 -177 -38z"/>
<path d="M2556 1210 c3 -19 10 -39 15 -44 13 -14 10 2 -7 44 l-14 35 6 -35z"/>
<path d="M5007 1216 l-28 -12 61 -82 c34 -45 65 -84 71 -88 6 -4 9 22 7 72 -3
77 -4 79 -37 101 -38 26 -36 26 -74 9z"/>
<path d="M1769 1184 c-19 -21 -149 -222 -149 -229 0 -3 7 -5 14 -5 8 0 27 -16
42 -35 15 -20 29 -34 31 -32 10 11 84 281 81 299 -3 20 -3 20 -19 2z"/>
<path d="M2965 1148 c-22 -11 -98 -52 -169 -91 -103 -55 -126 -72 -110 -78
178 -67 239 -89 248 -89 10 0 83 266 75 274 -2 2 -22 -5 -44 -16z"/>
<path d="M0 1098 c0 -44 3 -48 48 -80 26 -19 53 -38 61 -42 12 -8 -77 132
-100 159 -5 5 -9 -11 -9 -37z"/>
<path d="M3620 1136 c0 -2 43 -40 95 -87 52 -46 95 -90 95 -99 0 -13 -2 -13
-11 0 -9 12 -10 12 -5 -3 3 -10 6 -82 6 -160 l1 -142 51 -35 c29 -19 84 -61
123 -93 70 -57 70 -57 87 -36 21 25 21 24 -104 243 -43 76 -78 142 -76 147 2
6 50 -20 107 -56 56 -36 105 -65 107 -65 2 0 4 6 4 13 0 22 69 157 80 157 6 0
8 4 5 10 -3 5 -16 9 -28 8 -27 -2 -76 14 -187 59 -140 58 -350 141 -350 139z"/>
<path d="M3594 1040 c22 -178 55 -331 73 -337 7 -3 4 30 -7 94 -41 222 -82
374 -66 243z"/>
<path d="M4096 1047 c3 -10 9 -15 12 -12 3 3 0 11 -7 18 -10 9 -11 8 -5 -6z"/>
<path d="M3120 1017 c0 -23 28 -134 56 -219 12 -36 21 -48 42 -53 20 -5 188
-83 264 -123 7 -4 82 107 76 113 -1 1 -65 44 -140 94 -76 51 -171 119 -212
151 -41 33 -77 60 -80 60 -3 0 -6 -10 -6 -23z"/>
<path d="M2285 950 c-11 -18 94 -174 198 -295 96 -111 90 -107 83 -50 -3 28
-20 107 -38 176 l-32 126 -91 23 c-49 12 -95 24 -102 27 -6 2 -14 -1 -18 -7z"/>
<path d="M4916 940 c-3 -8 -20 -53 -37 -100 -17 -47 -31 -98 -31 -113 1 -31
-25 -53 -166 -139 -45 -28 -81 -52 -80 -53 2 -2 68 12 148 31 80 19 155 34
168 34 19 0 21 4 16 24 -5 23 -3 24 73 30 97 9 113 13 113 33 0 8 -35 59 -77
112 -43 53 -88 110 -100 126 -16 23 -23 26 -27 15z"/>
<path d="M1564 835 c-61 -118 -149 -318 -158 -359 -7 -29 -7 -29 31 -23 21 4
75 12 120 18 l81 12 -5 176 c-3 97 -8 199 -12 226 l-6 50 -51 -100z"/>
<path d="M4668 914 c-14 -13 -122 -36 -237 -49 -68 -8 -125 -16 -128 -18 -2
-3 33 -63 78 -133 44 -71 92 -151 106 -178 l25 -50 89 209 c49 115 89 212 89
217 0 9 -14 11 -22 2z"/>
<path d="M1020 898 c-63 -5 -119 -13 -124 -18 -5 -5 9 -14 32 -21 53 -15 70
-49 39 -75 -39 -33 -119 -66 -175 -71 -48 -5 -56 -3 -81 21 l-29 28 -31 -45
c-36 -53 -37 -59 -13 -79 15 -14 34 -12 197 28 99 24 184 43 189 44 6 0 -4
-15 -21 -32 -18 -18 -37 -46 -42 -61 -14 -37 -14 -197 0 -197 13 0 48 78 58
133 5 23 9 35 10 27 2 -17 68 119 103 211 13 32 26 59 30 59 3 0 35 -69 70
-152 61 -144 91 -188 95 -137 3 29 30 69 49 69 8 0 14 7 12 14 -5 23 -227 266
-241 265 -6 -1 -64 -6 -127 -11z"/>
<path d="M2695 897 c-58 -11 -61 -15 -70 -75 -4 -24 -9 -52 -12 -61 -3 -9 8 4
24 29 16 25 36 50 44 56 16 12 69 28 83 25 9 -2 26 18 26 32 0 9 -32 7 -95 -6z"/>
<path d="M2795 813 c-21 -32 -60 -89 -88 -128 -28 -38 -41 -62 -29 -51 21 18
21 18 35 -15 8 -19 24 -70 37 -114 13 -44 26 -83 30 -88 5 -6 80 224 80 246 0
2 -9 7 -20 10 -17 4 -20 13 -19 54 0 26 4 69 8 96 4 26 7 47 6 47 -1 0 -19
-26 -40 -57z"/>
<path d="M148 775 l-42 -84 -24 39 c-13 22 -25 40 -27 40 -3 0 -3 -21 -2 -47
2 -43 5 -48 24 -47 13 0 23 -1 23 -2 0 -2 -18 -44 -40 -94 -46 -104 -47 -110
-21 -110 11 0 114 -47 231 -105 116 -58 212 -105 214 -105 1 0 3 42 3 93 0 89
0 90 -6 23 l-6 -69 -135 276 c-74 152 -138 276 -143 277 -4 0 -26 -38 -49 -85z"/>
<path d="M2997 751 c11 -51 64 -179 77 -190 11 -9 26 5 75 69 34 45 61 87 61
94 0 16 -61 34 -152 45 l-67 7 6 -25z"/>
<path d="M511 697 c-43 -32 -43 -32 -37 -82 3 -27 6 -67 6 -87 0 -21 4 -38 8
-38 8 0 82 207 82 229 0 17 -11 12 -59 -22z"/>
<path d="M2295 703 c-22 -2 -145 -7 -273 -11 l-233 -7 76 -102 c41 -57 77
-103 80 -103 3 0 4 10 2 22 -2 20 9 27 103 60 392 137 360 124 325 137 -17 6
-33 10 -36 9 -2 -1 -22 -3 -44 -5z"/>
<path d="M2215 460 l-190 -190 -12 60 c-7 33 -20 75 -30 94 l-18 35 4 -125 c2
-78 -1 -130 -7 -136 -7 -7 -20 1 -42 25 l-31 35 -74 -23 c-84 -26 -93 -19 -56
40 47 77 116 112 123 63 2 -13 8 2 13 34 10 54 10 57 -7 45 -9 -6 -92 -64
-184 -127 -93 -63 -191 -135 -218 -160 l-51 -44 44 46 44 47 -39 10 c-82 21
-97 24 -92 15 3 -5 13 -35 22 -67 16 -55 18 -57 51 -57 36 0 314 38 325 45 3
2 19 -25 34 -61 16 -35 30 -64 33 -64 2 0 50 26 106 59 56 32 156 86 223 121
l121 62 32 168 c19 98 41 181 52 200 11 18 19 34 17 36 -2 2 -89 -82 -193
-186z"/>
<path d="M3643 600 c-18 -21 -33 -42 -33 -45 0 -4 45 -55 100 -113 55 -58 97
-108 93 -112 -5 -4 -60 -26 -123 -50 -63 -23 -144 -56 -180 -73 -64 -29 -64
-30 -36 -38 16 -4 86 -15 155 -24 127 -16 189 -39 183 -65 -4 -16 16 -30 42
-30 18 0 18 1 2 19 -16 18 -15 20 26 52 24 18 46 35 50 38 4 4 -6 71 -22 149
-17 79 -30 159 -30 180 0 60 -12 112 -25 112 -7 0 -24 9 -38 20 -18 14 -40 20
-79 20 -49 0 -55 -3 -85 -40z m207 -332 c39 -69 39 -103 0 -123 -43 -22 -71
-18 -107 16 -49 45 -45 77 14 123 25 20 50 36 54 36 5 0 22 -24 39 -52z"/>
<path d="M3226 564 c-4 -15 -27 -73 -52 -131 -24 -57 -44 -105 -44 -107 0 -3
74 9 187 29 l32 6 -20 52 c-29 74 -82 177 -90 177 -4 0 -10 -12 -13 -26z"/>
<path d="M4385 549 c-60 -24 -348 -150 -354 -155 -2 -2 54 -31 123 -66 83 -41
129 -59 134 -52 5 7 71 -19 191 -73 101 -46 185 -82 187 -81 2 2 0 52 -3 110
l-6 106 -129 -45 c-72 -24 -131 -43 -133 -41 -1 2 3 65 11 141 9 104 17 144
30 158 21 24 12 23 -51 -2z"/>
<path d="M1083 347 c-6 -78 -8 -158 -4 -177 6 -33 8 -35 51 -37 25 -2 62 -5
83 -8 33 -5 37 -3 37 16 0 19 4 20 35 15 19 -4 35 -4 35 0 0 3 -21 36 -47 73
-26 36 -77 110 -113 163 l-67 97 -10 -142z"/>
<path d="M4714 392 c22 -58 92 -201 99 -202 11 0 138 97 138 106 0 6 -97 52
-210 100 -31 13 -33 13 -27 -4z"/>
<path d="M708 328 c3 -38 -2 -50 -42 -101 -24 -31 -46 -63 -49 -70 -2 -8 -9
-7 -21 5 -12 13 -22 15 -39 8 -12 -5 -92 -23 -177 -40 -85 -17 -164 -33 -176
-36 -15 -4 -23 1 -32 20 -7 16 -8 28 -2 31 6 4 10 1 10 -6 0 -7 3 -10 6 -6 3
3 -16 53 -42 111 -26 58 -49 104 -51 102 -3 -2 3 -18 11 -35 11 -20 19 -71 23
-140 6 -102 5 -109 -16 -130 -11 -11 -21 -25 -21 -31 0 -6 70 -10 191 -10 177
0 194 2 226 21 25 16 37 18 47 10 10 -8 21 -2 47 27 19 20 104 95 189 167
l155 130 -60 6 c-33 4 -87 7 -120 8 l-60 1 3 -42z"/>
<path d="M946 188 c-37 -90 -70 -169 -73 -175 -4 -9 7 -13 35 -13 l40 0 21 87
c26 116 52 255 48 260 -2 2 -34 -70 -71 -159z"/>
<path d="M2479 234 c-68 -59 -154 -136 -191 -171 l-66 -63 138 0 138 0 56 166
c31 92 55 169 53 171 -2 2 -60 -45 -128 -103z"/>
<path d="M4284 253 c-4 -10 -30 -71 -59 -135 l-53 -118 139 0 c109 0 139 3
133 13 -6 9 -4 9 7 -1 19 -17 221 -17 213 0 -3 7 -76 56 -162 108 -86 52 -169
108 -184 123 -25 26 -28 27 -34 10z m151 -194 c10 -30 0 -33 -13 -4 -6 14 -7
25 -2 25 5 0 12 -9 15 -21z"/>
<path d="M2880 216 c0 -14 -9 -62 -20 -108 -11 -46 -20 -89 -20 -95 0 -10 24
-13 85 -13 l85 0 -30 53 c-17 28 -45 79 -62 112 -29 57 -29 59 -7 40 l24 -20
-24 28 c-30 33 -31 33 -31 3z"/>
<path d="M3235 158 c-94 -35 -124 -50 -151 -79 l-28 -29 72 0 c72 0 72 0 66
-25 l-6 -25 82 0 c61 0 81 3 78 13 -3 6 -15 44 -28 82 -12 39 -25 73 -29 76
-3 3 -28 -3 -56 -13z"/>
<path d="M4933 159 c-8 -19 -8 -31 2 -50 7 -13 17 -24 22 -24 21 -1 33 -19 33
-51 0 -32 2 -34 35 -34 32 0 35 2 26 19 -6 10 -26 33 -46 50 -22 19 -41 48
-48 73 -12 40 -13 41 -24 17z"/>
<path d="M3737 79 c-4 -13 -7 -36 -7 -51 0 -27 1 -28 57 -28 l57 0 -43 32
c-23 17 -46 40 -50 51 -7 20 -8 19 -14 -4z"/>
<path d="M5041 67 c11 -13 79 -37 79 -28 0 5 -11 12 -24 15 -13 3 -32 9 -43
13 -10 3 -16 3 -12 0z"/>
<path d="M2122 25 c-10 -22 -9 -25 8 -25 21 0 26 16 12 38 -6 9 -12 6 -20 -13z"/>
<path d="M4821 29 c-30 -10 -56 -21 -59 -24 -3 -3 27 -5 66 -5 74 0 81 4 60
32 -12 14 -18 14 -67 -3z"/>
</g>
</svg>