<svg width="161.182" height="78.564" viewBox="0 0 161.182 78.564" xmlns="http://www.w3.org/2000/svg"><g id="svgGroup" stroke-linecap="round" fill-rule="evenodd" font-size="9pt" stroke="#a3a3a3" stroke-width="0.25mm" fill="#a3a3a3" style="stroke:#a3a3a3;stroke-width:0.25mm;fill:#a3a3a3"><path d="M 0 41.943 L 0 35.352 L 42.725 12.646 L 46.289 20.41 L 15.381 37.744 L 12.354 38.672 L 15.527 39.697 L 46.289 56.934 L 42.725 64.697 L 0 41.943 Z M 161.182 40.479 L 161.182 33.887 L 118.457 11.182 L 114.893 18.945 L 145.801 36.279 L 148.828 37.207 L 145.654 38.232 L 114.893 55.469 L 118.457 63.232 L 161.182 40.479 Z M 70.947 78.564 L 83.35 43.604 L 99.023 3.32 A 6.113 6.113 0 0 0 96.768 1.626 A 7.107 7.107 0 0 0 96.68 1.587 Q 95.264 0.977 93.848 0.586 A 26.574 26.574 0 0 0 90.916 0.052 A 29.364 29.364 0 0 0 90.479 0 L 75.83 40.527 L 62.158 74.707 A 12.426 12.426 0 0 0 64.917 76.563 A 23.17 23.17 0 0 0 66.642 77.329 A 18.642 18.642 0 0 0 67.773 77.734 A 24.359 24.359 0 0 0 70.556 78.487 A 22.128 22.128 0 0 0 70.947 78.564 Z"/></g></svg>