<svg width="93.213" height="66.309" viewBox="0 0 93.213 66.309" xmlns="http://www.w3.org/2000/svg"><g id="svgGroup" stroke-linecap="round" fill-rule="evenodd" font-size="9pt" stroke="#87ceeb" stroke-width="0.25mm" fill="#87ceeb" style="stroke:#87ceeb;stroke-width:0.25mm;fill:#87ceeb"><path d="M 0 66.309 L 0 0 L 38.037 0 A 5.46 5.46 0 0 0 38.056 0.441 A 6.749 6.749 0 0 0 38.086 0.733 Q 38.135 1.074 38.159 1.489 A 13.685 13.685 0 0 1 38.177 1.923 A 17.414 17.414 0 0 1 38.184 2.393 A 6.241 6.241 0 0 1 38.164 2.861 Q 38.123 3.396 37.999 4.156 A 31.513 31.513 0 0 1 37.866 4.907 Q 37.62 6.212 36.921 7.824 A 23.538 23.538 0 0 1 36.475 8.789 A 3366.993 3366.993 0 0 0 30.231 8.57 A 3735.178 3735.178 0 0 0 28.076 8.496 Q 24.365 8.399 19.873 8.277 A 323.665 323.665 0 0 0 11.084 8.155 L 11.084 28.174 A 195.82 195.82 0 0 0 12.492 28.169 Q 13.23 28.163 14.047 28.153 A 321.149 321.149 0 0 0 14.282 28.15 A 310.628 310.628 0 0 0 17.038 28.099 A 349.442 349.442 0 0 0 17.993 28.076 A 12278.625 12278.625 0 0 1 21.875 27.979 A 2898.808 2898.808 0 0 0 25.684 27.881 A 702.543 702.543 0 0 1 34.38 27.64 A 757.67 757.67 0 0 1 34.521 27.637 A 7.026 7.026 0 0 0 34.541 28.144 A 8.461 8.461 0 0 0 34.57 28.467 A 9.525 9.525 0 0 1 34.608 28.832 Q 34.624 29.019 34.636 29.229 A 16.599 16.599 0 0 1 34.644 29.37 A 22.076 22.076 0 0 1 34.668 30.42 Q 34.668 30.62 34.619 31.129 A 33.435 33.435 0 0 1 34.595 31.372 Q 34.521 32.08 34.351 32.959 Q 34.18 33.838 33.96 34.717 Q 33.74 35.596 33.447 36.182 A 774.963 774.963 0 0 1 26.828 36.154 A 688.617 688.617 0 0 1 24.707 36.133 L 20.996 36.133 A 272.73 272.73 0 0 1 17.757 36.114 A 246.648 246.648 0 0 1 17.31 36.109 A 267.598 267.598 0 0 0 15.57 36.09 A 230.031 230.031 0 0 0 13.916 36.084 L 11.084 36.084 L 11.084 57.959 A 273.034 273.034 0 0 0 15.497 57.923 A 318.625 318.625 0 0 0 20.142 57.813 A 2013.18 2013.18 0 0 0 24.738 57.666 A 1610.693 1610.693 0 0 0 29.004 57.52 A 800.357 800.357 0 0 0 38.428 57.08 A 8.869 8.869 0 0 0 38.451 57.708 A 10.465 10.465 0 0 0 38.477 58.008 A 8.574 8.574 0 0 1 38.51 58.325 Q 38.535 58.609 38.55 58.96 A 25.3 25.3 0 0 1 38.574 60.059 A 18.913 18.913 0 0 1 38.56 60.762 Q 38.529 61.576 38.434 62.671 A 61.269 61.269 0 0 1 38.428 62.744 A 20.016 20.016 0 0 1 38.155 64.689 A 25.658 25.658 0 0 1 37.793 66.309 L 0 66.309 Z M 49.756 66.309 L 49.756 0 L 72.461 0 Q 77.344 0 81.201 1.343 A 18.865 18.865 0 0 1 85.565 3.498 A 16.511 16.511 0 0 1 87.744 5.249 Q 90.43 7.813 91.821 11.499 Q 93.213 15.186 93.213 19.873 Q 93.213 24.121 91.724 28.003 Q 90.234 31.885 87.28 34.888 A 20.386 20.386 0 0 1 82.29 38.574 A 24.959 24.959 0 0 1 79.932 39.673 A 23.544 23.544 0 0 1 74.702 41.089 A 32.238 32.238 0 0 1 69.727 41.455 A 127.528 127.528 0 0 1 67.932 41.443 A 103.292 103.292 0 0 1 66.26 41.406 Q 64.875 41.365 63.779 41.286 A 40.121 40.121 0 0 1 63.428 41.26 A 54.013 54.013 0 0 1 62.073 41.15 A 41.009 41.009 0 0 1 60.84 41.016 L 60.84 66.309 L 49.756 66.309 Z M 60.84 8.496 L 60.84 32.764 A 21.261 21.261 0 0 0 61.252 32.814 Q 61.938 32.892 63.037 32.984 Q 64.159 33.077 65.624 33.099 A 62.2 62.2 0 0 0 66.553 33.106 Q 69.873 33.106 72.681 32.422 Q 75.488 31.738 77.539 30.249 Q 79.59 28.76 80.737 26.367 A 11.053 11.053 0 0 0 81.598 23.718 Q 81.831 22.538 81.875 21.189 A 19.523 19.523 0 0 0 81.885 20.557 Q 81.885 17.822 81.323 15.601 A 11.735 11.735 0 0 0 80.547 13.419 A 9.455 9.455 0 0 0 79.565 11.792 A 7.809 7.809 0 0 0 76.465 9.351 Q 74.561 8.496 71.875 8.496 L 60.84 8.496 Z" vector-effect="non-scaling-stroke"/></g></svg>